<?xml version="1.0" encoding="iso-8859-1"?>
<!-- Generator: Adobe Illustrator 19.0.0, SVG Export Plug-In . SVG Version: 6.00 Build 0)  -->
<svg version="1.1" id="Capa_1" xmlns="http://www.w3.org/2000/svg" xmlns:xlink="http://www.w3.org/1999/xlink" x="0px" y="0px"
	 viewBox="0 0 512 512" style="enable-background:new 0 0 512 512;" xml:space="preserve">
<path style="fill:#3F4347;" d="M256,0v512c141.392,0,256-114.608,256-256S397.392,0,256,0z"/>
<path style="fill:#4E99D2;" d="M256,0v512C114.608,512,0,397.392,0,256S114.608,0,256,0z"/>
<g>
	<path style="fill:#F3C432;" d="M103.408,256.016c0-84.272,68.32-152.592,152.592-152.592V31.648l-0.032-0.032l-39.232,52.496
		l-58.128-30.224l-12.56,64.32l-65.52-2.096L97.12,179.52l-59.888,26.624l42.416,49.936L37.2,306.016l59.936,26.512L80.56,395.936
		l65.504-2.016l12.592,64.32l58.128-30.336L256,480.4v-71.776C171.728,408.624,103.408,340.304,103.408,256.016z"/>
	<path style="fill:#F3C432;" d="M103.408,256.016c0,84.272,68.32,152.592,152.592,152.592V103.424
		C171.728,103.424,103.408,171.744,103.408,256.016z"/>
</g>
<path style="fill:#FFD83B;" d="M131.92,256.016c0,68.528,55.552,124.08,124.08,124.08v-248.16
	C187.472,131.936,131.92,187.488,131.92,256.016z"/>
<path style="fill:#FFFFFF;" d="M380.08,256.016c0,68.528-55.552,124.08-124.08,124.08v-248.16
	C324.528,131.936,380.08,187.488,380.08,256.016z"/>
<g>
	<circle style="fill:#DDE3E9;" cx="287.088" cy="307.04" r="21.952"/>
	<circle style="fill:#DDE3E9;" cx="302.672" cy="200.592" r="17.584"/>
	<circle style="fill:#DDE3E9;" cx="344.496" cy="271.648" r="13.472"/>
</g>
<g>
</g>
<g>
</g>
<g>
</g>
<g>
</g>
<g>
</g>
<g>
</g>
<g>
</g>
<g>
</g>
<g>
</g>
<g>
</g>
<g>
</g>
<g>
</g>
<g>
</g>
<g>
</g>
<g>
</g>
</svg>
