<svg xmlns="http://www.w3.org/2000/svg" viewBox="0 0 99.6 99.6"><defs><style>.cls-1{stroke-miterlimit:10;stroke-width:3.05px;}</style></defs><title>checked_white</title><g id="Layer_2" data-name="Layer 2"><g id="checked_white"><path class="cls-1" d="M49.8,1.52A48.28,48.28,0,1,0,98.08,49.8,48.27,48.27,0,0,0,49.8,1.52Zm-6.47,74.1a3.59,3.59,0,0,1-5.09,0L14.81,52.19a3.59,3.59,0,0,1,0-5.09L19.91,42A3.61,3.61,0,0,1,25,42L40.79,57.78,74.6,24a3.57,3.57,0,0,1,5.09,0l5.1,5.09a3.6,3.6,0,0,1,0,5.1Z"/></g></g></svg>