<?xml version="1.0" encoding="utf-8"?>
<!-- Generator: Adobe Illustrator 23.0.0, SVG Export Plug-In . SVG Version: 6.00 Build 0)  -->
<svg version="1.1" id="Layer_1" xmlns="http://www.w3.org/2000/svg" xmlns:xlink="http://www.w3.org/1999/xlink" x="0px" y="0px"
	 viewBox="0 0 400 400" style="enable-background:new 0 0 400 400;" xml:space="preserve">
<style type="text/css">
	.st0{fill:#F69596;stroke:#000000;stroke-miterlimit:10;}
	.st1{fill:#8C8C8C;stroke:#000000;stroke-miterlimit:10;}
	.st2{fill:#FFFFFF;stroke:#000000;stroke-miterlimit:10;}
	.st3{fill:#BCBCBC;stroke:#000000;stroke-miterlimit:10;}
	.st4{fill:#898989;stroke:#000000;stroke-miterlimit:10;}
	.st5{fill:#969696;stroke:#000000;stroke-miterlimit:10;}
	.st6{fill:#9B9B9B;stroke:#000000;stroke-miterlimit:10;}
</style>
<polygon class="st0" points="86.5,332.5 103.5,323.5 101.1,237.5 86.5,260.5 79.5,280.5 "/>
<polygon class="st1" points="70.2,275 85.9,332.5 86.9,332.5 90,188.5 70.5,225.5 "/>
<polygon class="st2" points="35.5,231.5 35,37 117,85 113,113 127,192 87,259 68,275 "/>
<polygon class="st2" points="95.5,104.5 159.5,117.5 155.5,208.5 149.5,229.5 136.5,260.5 "/>
<polygon class="st2" points="148.5,123.5 148.5,219.5 164.5,219.5 185.5,123.5 "/>
<polygon class="st3" points="387.5,283.5 269.5,245.5 179.5,289.5 192.5,303.5 "/>
<polygon class="st4" points="97.5,348.5 141.5,328.5 106,315.4 "/>
<polygon class="st5" points="89.5,168 86.5,332.5 105.5,322.5 105.5,165.5 "/>
<polygon class="st2" points="95.5,104.5 116.5,84.5 122.8,110 "/>
<polygon class="st3" points="246.5,84.5 185.5,115.5 162.5,227.5 173.5,234.5 246.5,107.5 "/>
<polygon class="st2" points="285.7,189.9 246.5,237.5 231.5,213.5 "/>
<polygon class="st2" points="309.3,236.1 285.5,249.5 179.5,293.5 188.5,273.5 "/>
<polygon class="st3" points="243.5,216.5 313.5,234.5 179.5,283.5 185.5,260.5 "/>
<polygon class="st2" points="305.5,118.5 251.5,197.5 234.5,151.5 "/>
<polygon class="st3" points="236.5,156.5 287.5,188.5 182.5,270.5 175.5,234.5 "/>
<polygon class="st3" points="264.5,31.5 175.5,234.5 179.5,255.5 241.5,159.5 306.5,117.5 "/>
<polygon class="st6" points="119.5,229.5 154,213.7 166.5,237.5 136.5,274.5 "/>
<polygon class="st1" points="17.5,245.5 109.5,173.5 92.5,162.5 "/>
<path class="st3" d="M128.4,224.5l15.3-15H159l14.3,11l13.3,73l-76.5,24l37.7-84C147.7,233.5,152.8,218.5,128.4,224.5z"/>
<polygon class="st2" points="110.5,317.5 144.5,332.5 387.5,283.5 202.5,287.5 "/>
<polygon class="st2" points="117.5,166.5 136.5,258.5 97.5,346.5 103.5,163.5 "/>
<polygon class="st2" points="87.5,155.5 117.5,166.5 117.5,168.5 102.5,170.5 17.5,245.5 "/>
<path class="st2" d="M159.5,118.4l-0.2,5.1h-10.4c-0.1,0-0.1-0.1,0-0.2l9.9-5.4C159.1,117.8,159.5,118,159.5,118.4z"/>
<image style="display:none;overflow:visible;opacity:0.54;enable-background:new    ;" width="1080" height="2220" xlink:href="C5A35807.jpeg"  transform="matrix(1 0 0 1 -570 -858)">
</image>
</svg>
